<svg width="400" height="400" fill="none" xmlns="http://www.w3.org/2000/svg"><path d="M390.456 339.334h-32.959V156.441c0-12.06-9.816-21.875-21.875-21.875h-27.875c-3.941-7.7-11.203-13.432-19.903-15.241-4.922-22.431-24.925-39.284-48.816-39.284H237.5V63.644c6.209-1.428 10.866-6.972 10.866-13.61 0-7.715-6.275-13.99-13.991-13.99-7.716 0-13.991 6.275-13.991 13.99 0 6.638 4.657 12.182 10.866 13.61V80.04h-50V63.644c6.209-1.428 10.866-6.972 10.866-13.61 0-7.715-6.275-13.99-13.991-13.99-7.716 0-13.991 6.275-13.991 13.99 0 6.638 4.657 12.182 10.866 13.61V80.04h-1.531c-23.888 0-43.891 16.85-48.816 39.284-8.7 1.812-15.962 7.541-19.903 15.241H76.869c-12.06 0-21.875 9.815-21.875 21.875v182.89h-32.95a3.122 3.122 0 00-3.125 3.125v12.294c0 11.969 9.734 21.703 21.703 21.703h331.25c11.972 0 21.709-9.734 21.709-21.703v-12.294a3.122 3.122 0 00-3.125-3.122z" fill="#E6E7E8"/><path d="M341.875 329.959V143.941c0-10.357-8.394-18.75-18.75-18.75H64.372c-10.356 0-18.75 8.393-18.75 18.75v186.018h296.253z" fill="#64A3D8"/><path d="M319.913 329.96V159.056a6.248 6.248 0 00-6.25-6.25H73.834a6.248 6.248 0 00-6.25 6.25V329.96h252.329z" fill="#EEFDFF"/><path d="M9.544 329.959v12.291c0 10.259 8.319 18.578 18.578 18.578h331.25c10.262 0 18.581-8.319 18.581-18.578v-12.291H9.543z" fill="#64A3D8"/><path d="M134.213 329.959v6.222a9.402 9.402 0 009.403 9.403h100.259c5.194 0 9.406-4.212 9.406-9.403v-6.222H134.213zm-3.272-111.906h125.615v111.906H130.941V218.053zm155.315 39.984h-15.975v71.919h26.594v-74.99a19.894 19.894 0 01-10.619 3.071z" fill="#95CFD7"/><path d="M286.256 218.053h-29.7v39.987h29.7c11.041 0 19.994-8.95 19.994-19.993 0-11.044-8.953-19.994-19.994-19.994zm-185.012 39.984a19.87 19.87 0 01-10.619-3.075v74.994h26.594v-71.919h-15.975z" fill="#95CFD7"/><path d="M101.244 218.053h29.7v39.987h-29.7c-11.04 0-19.994-8.95-19.994-19.993 0-11.044 8.95-19.994 19.994-19.994zm74.015-12.459h36.979v12.456h-36.979v-12.456zm97.419-96.032c.447 2.597.728 5.254.728 7.979v41.178c0 .7-.075 1.381-.106 2.072 12.453-1.875 22.009-12.591 22.009-25.566.004-13.191-9.871-24.056-22.631-25.663zm-158.584 49.157v-41.178c0-2.725.281-5.379.728-7.979-12.759 1.604-22.635 12.469-22.635 25.663 0 12.975 9.557 23.691 22.01 25.566-.028-.691-.103-1.372-.103-2.072z" fill="#95CFD7"/><path d="M226.531 205.594h-65.562c-25.888 0-46.875-20.988-46.875-46.875v-41.178c0-25.888 20.987-46.876 46.875-46.876h65.562c25.888 0 46.875 20.988 46.875 46.876v41.178c0 25.89-20.987 46.875-46.875 46.875z" fill="#95CFD7"/><path d="M226.531 70.665h-65.562c-25.888 0-46.875 20.988-46.875 46.876v9.375c0-25.888 20.987-46.876 46.875-46.876h65.562c25.888 0 46.875 20.988 46.875 46.876v-9.375c0-25.888-20.987-46.876-46.875-46.876z" fill="#fff"/><path d="M222.253 187.756h-57.006c-17.259 0-31.25-13.99-31.25-31.25v-20.822c0-17.259 13.991-31.25 31.25-31.25h57.003c17.259 0 31.25 13.991 31.25 31.25v20.822c.003 17.26-13.991 31.25-31.247 31.25z" fill="#FFD2D2"/><path d="M221.875 48.397c5.999 0 10.862-4.863 10.862-10.863 0-5.999-4.863-10.862-10.862-10.862s-10.862 4.863-10.862 10.862c0 6 4.863 10.863 10.862 10.863zm-56.25 0c5.999 0 10.863-4.863 10.863-10.863 0-5.999-4.864-10.862-10.863-10.862s-10.862 4.863-10.862 10.862c0 6 4.863 10.863 10.862 10.863z" fill="#EB5757"/><path d="M315.103 357.703h-35.937a3.122 3.122 0 00-3.125 3.125 3.122 3.122 0 003.125 3.125h35.937a3.122 3.122 0 003.125-3.125 3.122 3.122 0 00-3.125-3.125z" fill="#333"/><path d="M377.953 326.834H345V143.941c0-12.06-9.816-21.875-21.875-21.875h-27.85a29.102 29.102 0 00-19.916-15.204c-4.909-22.453-24.922-39.321-48.825-39.321H225V51.144c6.209-1.428 10.866-6.972 10.866-13.61 0-7.715-6.275-13.99-13.991-13.99-7.716 0-13.991 6.275-13.991 13.99 0 6.638 4.657 12.182 10.866 13.61V67.54h-50V51.144c6.209-1.428 10.866-6.972 10.866-13.61 0-7.715-6.275-13.99-13.991-13.99-7.716 0-13.991 6.275-13.991 13.99 0 6.638 4.657 12.182 10.866 13.61V67.54h-1.531c-23.903 0-43.916 16.868-48.825 39.321a29.095 29.095 0 00-19.916 15.204H64.372c-12.06 0-21.875 9.815-21.875 21.875v182.893H9.544a3.122 3.122 0 00-3.125 3.125v12.291c0 11.969 9.734 21.703 21.703 21.703h238.544a3.122 3.122 0 003.125-3.125 3.122 3.122 0 00-3.125-3.125H28.122c-8.522 0-15.453-6.934-15.453-15.453v-9.166H374.83v9.166c0 8.522-6.934 15.453-15.456 15.453h-31.509a3.122 3.122 0 00-3.125 3.125 3.122 3.122 0 003.125 3.125h31.509c11.969 0 21.706-9.734 21.706-21.703v-12.291a3.127 3.127 0 00-3.128-3.125zm-163.815-289.3c0-4.265 3.471-7.74 7.74-7.74s7.741 3.472 7.741 7.74c0 4.27-3.478 7.741-7.744 7.741s-7.737-3.475-7.737-7.74zm-56.251 0c0-4.265 3.472-7.74 7.741-7.74s7.741 3.472 7.741 7.74c0 4.27-3.478 7.741-7.744 7.741s-7.738-3.475-7.738-7.74zm165.238 90.782c8.616 0 15.625 7.009 15.625 15.625v182.893h-15.713V159.059c0-5.168-4.206-9.375-9.375-9.375h-19.121c2.465-4.259 3.9-9.187 3.9-14.456 0-2.384-.319-4.694-.866-6.912h25.55zm-30.938 6.912c0 10.066-6.581 18.588-15.656 21.581v-39.268c0-1.335-.097-2.647-.2-3.957 9.178 2.932 15.856 11.503 15.856 21.644zm-174.968-17.687c0-24.125 19.625-43.75 43.75-43.75h65.562c24.125 0 43.75 19.625 43.75 43.75v41.178c0 24.125-19.625 43.75-43.75 43.75h-65.562c-24.125 0-43.75-19.625-43.75-43.75v-41.178zm91.893 97.387h-30.728v-6.209h30.728v6.209zm-97.943-101.347c-.103 1.31-.2 2.622-.2 3.956v39.269c-9.075-2.994-15.656-11.515-15.656-21.581 0-10.138 6.678-18.709 15.856-21.644zm-62.422 30.36c0-8.616 7.01-15.625 15.625-15.625h25.556a28.793 28.793 0 00-.865 6.912 28.725 28.725 0 003.9 14.456H73.834c-5.168 0-9.375 4.207-9.375 9.375v167.775H48.747V143.941zm21.962 15.118c0-1.725 1.4-3.125 3.125-3.125H97.82a28.972 28.972 0 0013.384 7.435c2.356 25.397 23.766 45.35 49.766 45.35h11.165v6.206h-70.893c-12.747 0-23.116 10.369-23.116 23.116 0 7.596 3.7 14.331 9.375 18.546v70.244H70.71V159.059zm13.666 78.985c0-9.303 7.566-16.866 16.866-16.866h26.575v33.738h-26.575c-9.3-.004-16.866-7.569-16.866-16.872zm43.441 23.118v65.672h-7.472v-65.672h7.472zM93.75 326.834v-66.94a22.993 22.993 0 007.491 1.272h12.85v65.671H93.75v-.003zm40.316 0V221.178h119.368v105.659H134.066v-.003zm152.19-71.922h-26.572v-33.734h26.572c9.303 0 16.869 7.566 16.869 16.866s-7.569 16.868-16.869 16.868zm-19.1 6.25v65.672h-7.475v-65.672h7.475zm6.25 65.672v-65.672h12.847c2.625 0 5.141-.462 7.494-1.271v66.943h-20.341zm26.594 0v-70.243c5.675-4.219 9.375-10.95 9.375-18.547 0-12.747-10.372-23.116-23.119-23.116h-70.894v-6.209h11.169c26 0 47.41-19.957 49.766-45.35a29.023 29.023 0 0013.384-7.435h23.978c1.725 0 3.125 1.4 3.125 3.125v167.775H300z" fill="#333"/><path d="M165.247 190.881h57.003c18.953 0 34.375-15.422 34.375-34.375v-20.822c0-18.953-15.422-34.375-34.375-34.375h-57.003c-18.953 0-34.375 15.422-34.375 34.375v20.822c0 18.956 15.422 34.375 34.375 34.375zm-28.125-55.197c0-15.509 12.616-28.125 28.125-28.125h57.003c15.509 0 28.125 12.616 28.125 28.125v20.822c0 15.51-12.616 28.125-28.125 28.125h-57.003c-15.509 0-28.125-12.615-28.125-28.125v-20.822z" fill="#333"/><path d="M193.75 172.438c7.75 0 14.059-6.31 14.059-14.063a3.122 3.122 0 00-3.125-3.125 3.122 3.122 0 00-3.125 3.125c0 4.309-3.503 7.813-7.809 7.813-4.309 0-7.813-3.504-7.813-7.813a3.122 3.122 0 00-3.125-3.125 3.121 3.121 0 00-3.124 3.125c0 7.753 6.309 14.063 14.062 14.063zm-23.822-26.682a8.04 8.04 0 100-16.082 8.04 8.04 0 000 16.082zm47.644 0a8.04 8.04 0 100-16.082 8.04 8.04 0 000 16.082z" fill="#333"/></svg>