<svg width="400" height="400" fill="none" xmlns="http://www.w3.org/2000/svg"><path d="M380.509 86.75c0-13.806-11.193-25-25-25h-77.318c-21.016-20.006-48.569-30.406-77.666-29.316-26.675 1.013-50.925 12.013-69.144 29.316H53.866c-13.807 0-25 11.194-25 25v207.063c0 13.806 11.193 25 25 25H169l-5.644 37.775h-28.687c-5.644 0-10.216 4.575-10.216 10.215 0 5.644 4.575 10.216 10.216 10.216h140.034c5.644 0 10.216-4.575 10.216-10.216 0-5.64-4.572-10.215-10.216-10.215h-28.687l-5.641-37.775h115.137c13.807 0 25-11.194 25-25V86.75h-.003z" fill="#E6E7E8"/><path d="M41.366 303.188h301.643c12.082 0 21.875-9.794 21.875-21.875V74.25c0-12.081-9.793-21.875-21.875-21.875H41.366c-12.082 0-21.875 9.794-21.875 21.875v207.063c0 12.081 9.793 21.875 21.875 21.875z" fill="#95CFD7"/><path d="M364.884 260.494V74.25c0-12.081-9.793-21.875-21.875-21.875H41.366c-12.082 0-21.875 9.794-21.875 21.875v186.244h345.393z" fill="#EEFDFF"/><path d="M343.009 52.375H41.366c-12.082 0-21.875 9.794-21.875 21.875v9.375c0-12.081 9.793-21.875 21.875-21.875h301.643c12.082 0 21.875 9.794 21.875 21.875V74.25c0-12.081-9.793-21.875-21.875-21.875z" fill="#fff"/><path d="M122.172 361.397h140.031a7.091 7.091 0 000-14.181H122.172a7.091 7.091 0 00-7.091 7.09 7.087 7.087 0 007.091 7.091zm37.956-58.209h64.119l6.578 44.025H153.55l6.578-44.025z" fill="#64A3D8"/><path d="M289.775 287.203a6.578 6.578 0 100-13.156 6.578 6.578 0 000 13.156z" fill="#fff"/><path d="M312.803 287.203a6.578 6.578 0 100-13.156 6.578 6.578 0 000 13.156z" fill="#64A3D8"/><path d="M335.828 287.203a6.578 6.578 0 100-13.156 6.578 6.578 0 000 13.156z" fill="#EB5757"/><path d="M272.525 174.063c-4.4-2.541-6.044-8.007-3.922-12.622a83.498 83.498 0 007.631-34.953c0-46.332-37.706-84.038-84.059-84.038-46.353 0-84.038 37.703-84.038 84.034 0 43.629 33.394 79.588 75.969 83.663v-12.081c0-4.191 4.538-6.81 8.166-4.716l35.212 20.328c19.194-7.781 35.228-21.703 45.669-39.344-.206-.096-.425-.156-.628-.271z" fill="#FFD2D2"/><path d="M188.144 23.056c-53.647 2.038-97.36 45.75-99.397 99.4-2.135 56.269 40.65 102.988 95.359 107.21v9.609c0 4.191 4.538 6.809 8.166 4.716l35.687-20.607c3.628-2.096 3.628-7.334 0-9.431l-35.687-20.606c-3.628-2.097-8.166.525-8.166 4.716v12.081c-42.575-4.075-75.969-40.035-75.969-83.663 0-46.331 37.688-84.037 84.038-84.037 46.35 0 84.059 37.706 84.059 84.037a83.47 83.47 0 01-7.631 34.953c-2.122 4.619-.481 10.082 3.922 12.622 5.003 2.891 11.362.794 13.775-4.456 6.031-13.128 9.4-27.728 9.4-43.119.003-58.51-48.544-105.665-107.556-103.425z" fill="#EB5757"/><path d="M243.75 95.112l-51.563 24.669v61.216l51.563-24.669V95.112z" fill="#EEFDFF"/><path d="M140.625 95.112l51.562 24.669v61.216l-51.562-24.669V95.112z" fill="#64A3D8"/><path d="M192.187 119.781l-51.518-24.647 51.518-24.647 51.519 24.647-51.519 24.647z" fill="#95CFD7"/><path d="M343.009 49.25h-77.315c-21.016-20.01-48.578-30.416-77.669-29.319-26.675 1.013-50.925 12.016-69.144 29.319H41.366c-13.785 0-25 11.216-25 25v207.062c0 13.785 11.215 25 25 25h115.137l-5.647 37.772h-28.687c-5.635 0-10.219 4.585-10.219 10.219 0 5.635 4.584 10.216 10.219 10.216h140.034c5.634 0 10.219-4.581 10.219-10.216 0-5.634-4.585-10.219-10.219-10.219h-28.687l-5.641-37.768h115.137c13.785 0 25-11.216 25-25v-55.172a3.126 3.126 0 00-6.25 0v31.225H22.616V74.25c0-10.34 8.409-18.75 18.75-18.75H112.8c-16.069 17.938-26.206 41.275-27.175 66.834-2.144 56.541 39.528 104.385 95.356 110.185v6.756c0 3.1 1.603 5.872 4.285 7.422a8.538 8.538 0 004.284 1.162 8.538 8.538 0 004.284-1.162l35.688-20.606c2.684-1.55 4.287-4.325 4.284-7.422 0-1.428-.375-2.772-1.006-3.975 17.166-7.941 31.597-20.735 41.594-36.628 2.256.54 4.628.531 6.875-.182a13.047 13.047 0 007.868-6.971c6.429-13.994 9.688-28.941 9.688-44.425 0-26.538-9.584-51.438-27.097-70.985h71.278c10.341 0 18.75 8.41 18.75 18.75v92.066a3.126 3.126 0 006.25 0V74.25c.003-13.784-11.212-25-24.997-25zm-76.837 305.053a3.97 3.97 0 01-3.969 3.966H122.172a3.972 3.972 0 01-3.969-3.966 3.973 3.973 0 013.969-3.969h140.034a3.977 3.977 0 013.966 3.969zm-38.975-10.215h-70.022l5.647-37.772h58.731l5.644 37.772zm134.562-80.469v17.697c0 10.34-8.409 18.75-18.75 18.75H41.366c-10.341 0-18.75-8.41-18.75-18.75v-17.697h339.143zm-134.153-53.478l-33.769-19.497a8.475 8.475 0 00-8.568 0c-2.682 1.55-4.285 4.322-4.285 7.422v8.571c-39.984-5.506-69.718-39.378-69.718-80.153 0-44.615 36.296-80.912 80.915-80.912 44.625 0 80.931 36.297 80.931 80.912 0 11.722-2.471 23.047-7.343 33.65-2.441 5.307-1.088 11.36 3.053 15.063-9.847 15.447-24.194 27.706-41.216 34.944zm55.856-41.841a6.776 6.776 0 01-4.084 3.628 6.506 6.506 0 01-5.287-.575c-2.975-1.716-4.11-5.419-2.644-8.609 5.253-11.428 7.915-23.628 7.915-36.26 0-48.062-39.109-87.162-87.181-87.162-48.062 0-87.165 39.1-87.165 87.162 0 45.169 33.875 82.472 78.793 86.775a3.122 3.122 0 002.4-.797 3.121 3.121 0 001.025-2.312v-12.081c0-1.21.81-1.807 1.16-2.01.35-.203 1.272-.609 2.318 0l35.688 20.607c1.047.603 1.159 1.606 1.159 2.006 0 .403-.112 1.406-1.159 2.009l-35.688 20.607c-1.046.6-1.968.2-2.318 0-.347-.2-1.16-.8-1.16-2.01v-9.609a3.125 3.125 0 00-2.884-3.116c-53.909-4.165-94.531-49.834-92.475-103.975 1.972-52.081 44.312-94.422 96.391-96.4 27.553-1.056 53.712 8.89 73.55 27.99 19.84 19.1 30.765 44.785 30.765 72.316-.003 14.578-3.069 28.65-9.119 41.816z" fill="#333"/><path d="M364.884 176.35a3.126 3.126 0 00-3.125 3.125v33.991a3.126 3.126 0 006.25 0v-33.991c0-1.728-1.4-3.125-3.125-3.125zM245.053 92.316l-51.519-24.647a3.115 3.115 0 00-2.697 0l-51.518 24.647a3.12 3.12 0 00-1.775 2.815l-.044 61.197c0 1.203.691 2.3 1.775 2.819l51.562 24.669a3.143 3.143 0 002.7 0l51.563-24.669a3.126 3.126 0 001.775-2.819l-.044-61.197a3.122 3.122 0 00-1.778-2.815zM192.187 73.95l44.279 21.184-44.279 21.185-44.278-21.185 44.278-21.184zm-48.396 26.141l45.271 21.662v54.288l-45.312-21.679.041-54.271zm51.521 75.95v-54.288l45.272-21.659.041 54.268-45.313 21.679z" fill="#333"/></svg>