<svg width="400" height="420" viewBox="0 0 400 389" fill="none" xmlns="http://www.w3.org/2000/svg"><path d="M390.456 331.748h-32.959V154.044c0-11.717-9.816-21.254-21.875-21.254h-91.728l2.234-19.098a2.97 2.97 0 00-.572-2.123L208.781 62.12c-1.178-1.579-3.887-1.579-5.065 0l-36.772 49.446a2.975 2.975 0 00-.572 2.123l2.234 19.098H76.872c-12.06 0-21.875 9.537-21.875 21.254v177.704H22.044c-1.728 0-3.125 1.357-3.125 3.036v11.942c0 11.629 9.734 21.087 21.703 21.087h331.25c11.972 0 21.709-9.458 21.709-21.087v-11.942c0-1.676-1.397-3.033-3.125-3.033z" fill="#E6E7E8"/><path d="M133.381 56.925c5.71 0 10.478-3.808 11.872-8.936h33.794c-20.319 9.482-34.6 29.185-35.772 52.234h-5.128c-1.728 0-3.125 1.357-3.125 3.036v15.734c0 1.679 1.397 3.037 3.125 3.037h16.194c1.728 0 3.125-1.358 3.125-3.037v-15.734c0-1.679-1.397-3.036-3.125-3.036h-4.813c1.631-29.06 26.41-52.234 56.722-52.234 30.313 0 55.091 23.173 56.725 52.234h-4.812c-1.729 0-3.125 1.357-3.125 3.036v15.734c0 1.679 1.396 3.037 3.125 3.037h16.193c1.728 0 3.125-1.358 3.125-3.037v-15.734c0-1.679-1.397-3.036-3.125-3.036h-5.128c-1.169-23.049-15.453-42.752-35.772-52.234h33.794c1.394 5.128 6.163 8.936 11.872 8.936 6.797 0 12.322-5.371 12.322-11.972 0-6.601-5.528-11.973-12.322-11.973-5.709 0-10.478 3.808-11.872 8.936H145.253c-1.394-5.128-6.162-8.935-11.872-8.935-6.797 0-12.322 5.37-12.322 11.972 0 6.6 5.525 11.972 12.322 11.972z" fill="#E6E7E8"/><path d="M341.875 322.639v-180.74c0-10.062-8.394-18.218-18.75-18.218H64.372c-10.356 0-18.75 8.156-18.75 18.218v180.74h296.253z" fill="#95CFD7"/><path d="M319.913 322.639V156.586c0-3.355-2.797-6.073-6.25-6.073H73.834c-3.453 0-6.25 2.718-6.25 6.073v166.053h252.329z" fill="#EEFDFF"/><path d="M313.663 150.513h-9.375c3.453 0 6.25 2.721 6.25 6.073v166.05h9.375v-166.05c0-3.352-2.8-6.073-6.25-6.073z" fill="#fff"/><path d="M9.544 322.639v11.942c0 9.968 8.319 18.051 18.578 18.051h331.25c10.262 0 18.581-8.083 18.581-18.051v-11.942H9.543z" fill="#95CFD7"/><path d="M134.213 322.639v6.045c0 5.047 4.209 9.137 9.403 9.137h100.259c5.194 0 9.406-4.093 9.406-9.137v-6.045H134.213zm29.703-142.589h59.668c11.735 47.236 19.16 95.353 18.75 142.589h-97.168c-.41-47.236 7.015-95.356 18.75-142.589z" fill="#64A3D8"/><path d="M164.706 180.05h58.091c5.547 0 10.044-4.369 10.044-9.758 0-5.39-4.497-9.759-10.044-9.759h-58.091c-5.547 0-10.043 4.369-10.043 9.759 0 5.389 4.496 9.758 10.043 9.758z" fill="#EB5757"/><path d="M156.975 101.203l36.775-49.45 36.775 49.45-6.941 59.333h-59.668l-6.941-59.333z" fill="#FFD2D2"/><path d="M193.75 114.715c3.179 0 5.756-2.504 5.756-5.593s-2.577-5.593-5.756-5.593c-3.179 0-5.756 2.504-5.756 5.593s2.577 5.593 5.756 5.593zm72.869-72.972c5.079 0 9.197-4 9.197-8.936 0-4.935-4.118-8.935-9.197-8.935-5.08 0-9.197 4-9.197 8.935 0 4.936 4.117 8.936 9.197 8.936zm-145.738 0c5.08 0 9.197-4 9.197-8.936 0-4.935-4.117-8.935-9.197-8.935-5.079 0-9.197 4-9.197 8.935 0 4.936 4.118 8.936 9.197 8.936zm124.782 49.371h16.193v15.734h-16.193V91.114zm-120.019 0h16.193v15.734h-16.193V91.114z" fill="#EB5757"/><path d="M67.584 229.233c1.728 0 3.125-1.358 3.125-3.037v-22.617c0-1.679-1.397-3.037-3.125-3.037s-3.125 1.358-3.125 3.037v22.617c0 1.679 1.397 3.037 3.125 3.037z" fill="#333"/><path d="M377.953 319.603H345V141.899c0-11.717-9.816-21.254-21.875-21.254h-91.731l2.234-19.098a2.974 2.974 0 00-.572-2.123l-36.772-49.45c-1.178-1.578-3.887-1.578-5.065 0l-36.775 49.45a2.97 2.97 0 00-.572 2.123l2.234 19.098H64.372c-12.06 0-21.875 9.537-21.875 21.254V319.6H9.544c-1.728 0-3.125 1.357-3.125 3.036v11.945c0 11.626 9.734 21.084 21.703 21.084h331.25c11.969 0 21.706-9.458 21.706-21.084v-11.945c0-1.676-1.397-3.033-3.125-3.033zm-54.828-192.885c8.616 0 15.625 6.81 15.625 15.181V319.6h-15.713V156.586c0-5.022-4.206-9.109-9.375-9.109h-85.406l2.428-20.759h92.441zm-158.422 36.854h58.091c3.815 0 6.918 3.015 6.918 6.723 0 3.704-3.103 6.719-6.918 6.719h-58.091c-3.812 0-6.916-3.015-6.916-6.719 0-3.708 3.104-6.723 6.916-6.723zm1.675 19.515h54.744c12.244 49.914 18.172 94.633 18.103 136.516h-90.95c-.072-41.874 5.856-86.59 18.103-136.516zm79.05 136.516c.072-42.196-5.859-87.2-18.119-137.339 5.035-1.801 8.653-6.461 8.653-11.969 0-5.617-3.771-10.348-8.965-12.064l.547-4.678h86.115c1.725 0 3.125 1.36 3.125 3.036v163.014h-71.356zM193.75 106.566c1.45 0 2.631 1.147 2.631 2.556s-1.181 2.557-2.631 2.557c-1.45 0-2.631-1.148-2.631-2.557s1.181-2.556 2.631-2.556zm-3.125-45.427v39.937c-3.353 1.233-5.756 4.363-5.756 8.049 0 4.758 3.981 8.629 8.881 8.629s8.881-3.868 8.881-8.629c0-3.686-2.4-6.816-5.756-8.049V61.139l30.406 40.89-6.487 55.474h-54.088l-6.487-55.474 30.406-40.89zM48.747 141.9c0-8.371 7.01-15.181 15.625-15.181h92.447l2.428 20.759H73.834c-5.168 0-9.375 4.087-9.375 9.109v33.709c0 1.679 1.397 3.036 3.125 3.036s3.125-1.357 3.125-3.036v-33.709c0-1.676 1.4-3.037 3.125-3.037h86.122l.547 4.679c-5.194 1.716-8.966 6.447-8.966 12.067 0 5.508 3.619 10.171 8.654 11.969-12.26 50.151-18.194 95.152-18.119 137.339H70.709v-81.298c0-1.679-1.397-3.036-3.125-3.036s-3.125 1.357-3.125 3.036V319.6H48.747V141.899zm326.081 192.682c0 8.28-6.934 15.011-15.456 15.011H28.122c-8.522 0-15.453-6.734-15.453-15.011v-8.909H374.83v8.909h-.003z" fill="#333"/><path d="M120.881 44.78c5.71 0 10.478-3.808 11.872-8.936h33.794c-20.319 9.482-34.603 29.185-35.772 52.236h-5.128c-1.728 0-3.125 1.358-3.125 3.037v15.734c0 1.679 1.397 3.036 3.125 3.036h16.194c1.728 0 3.125-1.357 3.125-3.036V91.117c0-1.68-1.397-3.037-3.125-3.037h-4.813c1.635-29.063 26.413-52.24 56.722-52.24s55.091 23.174 56.725 52.237h-4.812c-1.729 0-3.125 1.358-3.125 3.037v15.734c0 1.679 1.396 3.036 3.125 3.036h16.193c1.728 0 3.125-1.357 3.125-3.036V91.114c0-1.68-1.397-3.037-3.125-3.037h-5.128c-1.169-23.051-15.453-42.754-35.772-52.236h33.794c1.394 5.128 6.163 8.936 11.872 8.936 6.797 0 12.322-5.372 12.322-11.973 0-6.6-5.528-11.969-12.322-11.969-5.709 0-10.478 3.808-11.872 8.933H132.753c-1.394-5.125-6.162-8.933-11.872-8.933-6.797 0-12.322 5.371-12.322 11.97-.003 6.603 5.525 11.975 12.322 11.975zm17.832 59.032h-9.944V94.15h9.944v9.662zm120.018 0h-9.943V94.15h9.943v9.662zm7.888-76.904c3.347 0 6.072 2.644 6.072 5.896s-2.725 5.9-6.072 5.9-6.072-2.648-6.072-5.9c0-3.252 2.725-5.896 6.072-5.896zm-145.738 0c3.347 0 6.072 2.644 6.072 5.896s-2.725 5.9-6.072 5.9-6.072-2.648-6.072-5.9c0-3.252 2.722-5.896 6.072-5.896z" fill="#333"/></svg>