<svg width="400" height="400" fill="none" xmlns="http://www.w3.org/2000/svg"><path d="M373.438 206.269A168.072 168.072 0 00227.434 40.472l.554-.44a12.503 12.503 0 00-15.625-19.523l-25.397 20.313a12.41 12.41 0 00-4.466 7.85A159.635 159.635 0 0047.262 195.719a10.935 10.935 0 00-8.2 10.55 167.602 167.602 0 00148.091 166.056l-.184.144a12.498 12.498 0 00-1.947 17.572 12.5 12.5 0 0017.572 1.946l25.4-20.312a12.433 12.433 0 004.506-8.238 159.63 159.63 0 00132.725-146.625 10.932 10.932 0 008.213-10.543z" fill="#E6E7E8"/><path d="M193.75 350.019c86.294 0 156.25-69.956 156.25-156.25 0-86.295-69.956-156.25-156.25-156.25S37.5 107.474 37.5 193.769c0 86.294 69.956 156.25 156.25 156.25z" fill="#EEFDFF"/><path d="M100.097 201.425l11.7 86.563a13.254 13.254 0 004.408 8.202 13.259 13.259 0 008.717 3.276h137.647a13.254 13.254 0 0013.125-11.478l11.7-86.563H100.097z" fill="#FFD2D2"/><path d="M265.694 290.091H121.806a13.25 13.25 0 01-5.788-1.334 13.242 13.242 0 01-4.621-3.732l.4 2.963a13.254 13.254 0 004.408 8.202 13.259 13.259 0 008.717 3.276h137.647a13.254 13.254 0 0013.125-11.478l.4-2.963a13.243 13.243 0 01-4.617 3.73 13.245 13.245 0 01-5.783 1.336z" fill="#fff"/><path d="M296.281 175H91.219a13.214 13.214 0 000 26.422H296.28a13.21 13.21 0 000-26.422z" fill="#EB5757"/><path d="M269.219 115.088a13.21 13.21 0 00-18.682 0l-63.787 63.787a13.214 13.214 0 00-3.869 9.342 13.214 13.214 0 0013.212 13.209c3.504 0 6.864-1.392 9.341-3.87l63.785-63.784a13.214 13.214 0 000-18.684z" fill="#64A3D8"/><path d="M192.578 146.333c16.947-16.947 16.947-44.425 0-61.372-16.947-16.948-44.425-16.948-61.372 0-16.947 16.947-16.947 44.425 0 61.372 16.947 16.947 44.425 16.947 61.372 0z" fill="#FFD2D2"/><path d="M186.44 140.195c13.558-13.557 13.558-35.539 0-49.096-13.557-13.558-35.539-13.558-49.096 0-13.558 13.557-13.558 35.539 0 49.096 13.557 13.558 35.539 13.558 49.096 0z" fill="#EB5757"/><path d="M174.687 133.062a15.695 15.695 0 01-9.025 4.166v3.803a3.135 3.135 0 01-.846 2.266 3.295 3.295 0 01-4.469 0 3.132 3.132 0 01-.844-2.266v-3.681a27.425 27.425 0 01-6.703-1.45 19.23 19.23 0 01-5.625-3.019 3.037 3.037 0 01-1.084-1.206 3.903 3.903 0 01-.313-1.631c-.003-.812.274-1.6.785-2.232a2.165 2.165 0 011.721-.965c.383-.004.764.067 1.119.209.466.205.919.438 1.356.697a22.355 22.355 0 005.466 2.656c1.829.568 3.735.851 5.65.841a10.646 10.646 0 006.25-1.563 5.213 5.213 0 002.187-4.528 3.617 3.617 0 00-1.206-2.837 8.78 8.78 0 00-3.019-1.722c-1.206-.417-2.896-.909-5.071-1.478a55.18 55.18 0 01-7.366-2.325 12.777 12.777 0 01-4.891-3.594 9.732 9.732 0 01-2.053-6.519 11.271 11.271 0 01.876-4.534 11.264 11.264 0 012.624-3.8 16.077 16.077 0 019.169-4.288v-3.809a3.13 3.13 0 01.847-2.266 3.29 3.29 0 014.469 0 3.12 3.12 0 01.843 2.266v3.75a20.275 20.275 0 0110.507 4.406 3.4 3.4 0 011.45 2.84 3.51 3.51 0 01-.757 2.232 2.2 2.2 0 01-1.781.966c-.359 0-.717-.06-1.056-.178a7.208 7.208 0 01-1.356-.725 23.03 23.03 0 00-4.688-2.628 14.133 14.133 0 00-5.222-.875 9.792 9.792 0 00-5.978 1.659 5.381 5.381 0 00-2.219 4.55 4.302 4.302 0 001.269 3.231 8.355 8.355 0 003.2 1.9c1.288.444 3.039.948 5.253 1.513a52.298 52.298 0 017.188 2.231 12.288 12.288 0 014.74 3.472 9.49 9.49 0 011.963 6.312 11.03 11.03 0 01-3.36 8.153z" fill="#fff"/><path d="M207.034 30.29l6.5-5.2a9.382 9.382 0 003.527-6.296 9.386 9.386 0 00-1.992-6.936 9.382 9.382 0 00-6.33-3.466 9.379 9.379 0 00-6.917 2.058l-25.4 20.313a9.374 9.374 0 00-.406 14.296l24.375 21.875a9.374 9.374 0 0013.24-.715 9.377 9.377 0 00-.715-13.24l-8.007-7.188a148.605 148.605 0 01137.279 147.978 7.812 7.812 0 1015.625 0A164.253 164.253 0 00207.034 30.291zm6.907 312.138l-24.375-21.875a9.389 9.389 0 00-6.769-2.384 9.364 9.364 0 00-6.472 3.1 9.38 9.38 0 00.716 13.24l8.278 7.429A148.616 148.616 0 0145.313 193.769a7.812 7.812 0 10-15.626 0 164.247 164.247 0 00152.979 163.647l-6.25 5a9.373 9.373 0 00-1.395 13.121 9.378 9.378 0 0013.107 1.519l25.4-20.312a9.374 9.374 0 00.406-14.297l.007-.019z" fill="#95CFD7"/><path d="M296.281 171.875h-60.753l35.9-35.894a16.322 16.322 0 004.785-11.55 16.334 16.334 0 00-27.885-11.553l-59.003 58.997H91.219a16.337 16.337 0 000 32.672h6.147l11.334 83.859a16.432 16.432 0 0016.231 14.185h137.638a16.432 16.432 0 0016.231-14.185l11.334-83.856h6.147a16.339 16.339 0 100-32.675zm-43.534-54.578a10.076 10.076 0 017.166-3.068 10.081 10.081 0 019.414 6.265 10.083 10.083 0 01-2.318 11.069l-63.787 63.784a10.327 10.327 0 01-14.263 0 10.1 10.1 0 010-14.263l63.788-63.787zm19.856 170.272a10.156 10.156 0 01-10.034 8.772H124.931a10.156 10.156 0 01-10.034-8.772l-11.222-83.019h8.069a3.123 3.123 0 003.125-3.125 3.122 3.122 0 00-3.125-3.125H91.219a10.087 10.087 0 010-20.172h92.125a16.248 16.248 0 000 20.172h-26.522a3.125 3.125 0 100 6.25h127.003l-11.222 83.019zm23.678-89.269h-87.187l20.184-20.175h67.003a10.09 10.09 0 019.91 10.086 10.086 10.086 0 01-9.91 10.086v.003z" fill="#333"/><path d="M148.325 201.425a3.125 3.125 0 00-3.125-3.125h-22.119a3.123 3.123 0 00-3.125 3.125 3.122 3.122 0 003.125 3.125H145.2a3.125 3.125 0 003.125-3.125zm30.594 79.15a3.123 3.123 0 003.125-3.125V224a3.126 3.126 0 00-6.25 0v53.438a3.12 3.12 0 001.926 2.898c.38.158.787.239 1.199.239zm-35.597-59.687a3.126 3.126 0 00-2.721 2.159 3.13 3.13 0 00-.138 1.212l4.415 53.438a3.128 3.128 0 003.125 2.869c.087.004.173.004.26 0a3.151 3.151 0 001.173-.335 3.14 3.14 0 001.547-1.825c.126-.391.173-.803.139-1.212l-4.428-53.444a3.13 3.13 0 00-3.372-2.862zm66.515 59.687a3.125 3.125 0 003.125-3.125V224a3.125 3.125 0 10-6.25 0v53.438a3.12 3.12 0 00.911 2.217 3.13 3.13 0 002.214.92zm30.669-.012c.087.004.173.004.26 0a3.13 3.13 0 003.125-2.869l4.415-53.438a3.13 3.13 0 00-5.15-2.639 3.135 3.135 0 00-1.094 2.133l-4.415 53.437a3.114 3.114 0 00.73 2.281 3.129 3.129 0 002.129 1.095zm-43.781-87.46a5.522 5.522 0 100-11.043 5.522 5.522 0 000 11.043zm-34.806-30.934a46.531 46.531 0 0045.637-55.605 46.53 46.53 0 00-92.162 9.08 46.579 46.579 0 0046.525 46.525zm0-86.803a40.279 40.279 0 11-40.275 40.278 40.313 40.313 0 0140.275-40.278z" fill="#333"/><path d="M360.938 193.769A168.072 168.072 0 00214.934 27.972l.554-.44a12.503 12.503 0 00-15.625-19.523l-25.397 20.313A12.408 12.408 0 00170 36.25 159.576 159.576 0 0034.784 183.213a10.933 10.933 0 00-8.221 10.556 167.6 167.6 0 00148.09 166.056l-.184.144a12.491 12.491 0 00-4.613 8.382 12.505 12.505 0 006.398 12.33 12.5 12.5 0 009.51 1.053 12.512 12.512 0 004.33-2.246l25.4-20.313a12.43 12.43 0 004.528-8.253 159.608 159.608 0 00132.719-146.594 10.936 10.936 0 008.197-10.559zM211.581 354.288l-25.4 20.312a6.388 6.388 0 01-8.781-.975 6.252 6.252 0 01.975-8.784l6.25-5a3.124 3.124 0 00-1.741-5.557A161.293 161.293 0 0132.813 193.769a4.689 4.689 0 018.002-3.315 4.689 4.689 0 011.373 3.315 151.59 151.59 0 00142.971 151.303 3.17 3.17 0 003.06-1.919 3.135 3.135 0 00.163-1.889 3.131 3.131 0 00-.96-1.636l-8.281-7.428a6.253 6.253 0 01-.474-8.833 6.257 6.257 0 018.833-.473l24.375 21.875a6.241 6.241 0 012.074 4.83 6.244 6.244 0 01-2.346 4.704l-.022-.015zm7.66-9.575a12.455 12.455 0 00-3.213-4.61l-24.375-21.875a12.498 12.498 0 00-9.024-3.179 12.5 12.5 0 00-7.676 21.785l1.303 1.169A145.347 145.347 0 0148.437 193.769a10.913 10.913 0 00-7.412-10.313 153.323 153.323 0 01129.6-140.987 12.46 12.46 0 003.309 4.925l24.375 21.875a12.504 12.504 0 0020.14-5.162A12.494 12.494 0 00215 50.65l-.791-.71a145.94 145.94 0 01124.853 143.83 10.915 10.915 0 007.429 10.312 153.361 153.361 0 01-127.25 140.632zM350 198.456a4.69 4.69 0 01-4.688-4.687 152.116 152.116 0 00-140.181-151.09h-.234a3.124 3.124 0 00-2.084 5.446l8.006 7.188a6.258 6.258 0 012.065 4.316 6.257 6.257 0 01-1.593 4.512 6.434 6.434 0 01-8.822.478l-24.375-21.875a6.254 6.254 0 01-1.418-7.438 6.236 6.236 0 011.69-2.093l25.4-20.313a6.243 6.243 0 014.594-1.333 6.25 6.25 0 013.218 11.092l-6.5 5.2a3.125 3.125 0 001.703 5.553A161.725 161.725 0 01354.688 193.77a4.691 4.691 0 01-4.688 4.687z" fill="#333"/></svg>